:SAMPLES-PER-SECOND 30
:FULLY-SPECIFIED
:DEGREES
150
root  -22.5517 7.34573 -16.1668 179.593 -1.91103 -168.623
RightUpLeg  -92.5421 -8.2859 13.5941
RightLeg  153.918 10.9642 -5.93501
RightFoot  -48.7791 4.1712 9.794
RightToes  -4.96563 0.0159194 -0.0503104
Spine  20.7113 1.9273 6.12013
Spine1  35.2557 2.83131 10.4716
HEad  -45.5205 18.0386 0.625736
LeftShoulder1  -1.94126e-019 -3.10601e-018 -2.51263e-017
LeftArm  28.0395 -61.6119 -113.932
LeftForeArm  32.4471 -58.157 -14.7839
LeftHand  -0.682966 1.90295 22.5927
RightShoulder  -4.96962e-017 0 -2.36833e-017
RightArm  -15.2902 69.1205 92.9029
RightForeArm  42.5628 60.8027 15.5039
RightHand  -0.2951 -2.53607 -11.6792
LeftUpLeg  -98.1013 14.9053 20.6067
LeftLeg  158.263 0.341948 -0.158594
LeftFoot  -44.7241 -1.56307 -3.63674
LeftToes  -16.8341 2.03064e-006 1.83538e-008
151
root  -22.5641 7.26344 -16.2126 179.401 -1.89281 -168.593
RightUpLeg  -92.3339 -8.27844 13.5171
RightLeg  154.239 11.0388 -5.89633
RightFoot  -48.9529 4.21643 9.85636
RightToes  -5.34199 0.015998 -0.0498533
Spine  20.7877 1.9407 6.20239
Spine1  35.3728 2.87218 10.5561
HEad  -45.3428 19.1643 0.147818
LeftShoulder1  -1.94126e-019 -3.10601e-018 -2.51263e-017
LeftArm  28.2311 -61.7274 -114.083
LeftForeArm  32.2552 -57.9679 -14.6806
LeftHand  -0.684496 1.80164 22.0156
RightShoulder  -4.96962e-017 0 -2.36833e-017
RightArm  -15.6656 69.411 92.8189
RightForeArm  42.5724 60.3017 15.1402
RightHand  -0.301596 -2.48912 -11.7584
LeftUpLeg  -97.9613 14.9109 20.7378
LeftLeg  158.582 0.428109 -0.196686
LeftFoot  -45.0316 -1.58655 -3.66459
LeftToes  -16.3705 2.03064e-006 1.83538e-008
152
root  -22.5826 7.24052 -16.249 179.1 -1.96944 -168.485
RightUpLeg  -91.8804 -8.4238 13.4466
RightLeg  154.34 11.045 -5.8746
RightFoot  -49.1331 4.24481 9.87984
RightToes  -5.31397 0.016019 -0.0495958
Spine  20.9885 1.92393 6.32832
Spine1  35.7109 2.8392 10.6951
HEad  -45.3623 20.0923 -0.19617
LeftShoulder1  -1.94126e-019 -3.10601e-018 -2.51263e-017
LeftArm  28.4286 -61.9506 -114.405
LeftForeArm  32.6179 -57.9953 -14.6627
LeftHand  -0.706348 1.59742 21.5126
RightShoulder  -4.96962e-017 0 -2.36833e-017
RightArm  -16.0649 69.7425 92.6897
RightForeArm  42.1181 60.1382 15.0717
RightHand  -0.290337 -2.6584 -11.9833
LeftUpLeg  -97.6191 14.6923 20.912
LeftLeg  158.735 0.435743 -0.198871
LeftFoot  -45.2628 -1.62479 -3.73452
LeftToes  -16.058 2.03064e-006 1.83538e-008
153
root  -22.5953 7.25106 -16.2475 179.084 -2.00449 -168.439
RightUpLeg  -91.8325 -8.39312 13.4001
RightLeg  154.292 11.1057 -5.91986
RightFoot  -49.0547 4.25662 9.92271
RightToes  -5.38672 0.0159844 -0.0506853
Spine  21.0267 1.93634 6.35735
Spine1  35.7863 2.8596 10.7426
HEad  -45.6009 20.5919 -0.46981
LeftShoulder1  -1.94126e-019 -3.10601e-018 -2.51263e-017
LeftArm  28.4785 -61.9968 -114.564
LeftForeArm  32.9686 -58.1216 -14.7097
LeftHand  -0.732698 1.40436 21.2487
RightShoulder  -4.96962e-017 0 -2.36833e-017
RightArm  -16.1825 69.8209 92.7729
RightForeArm  41.7773 60.2033 15.1515
RightHand  -0.283533 -2.74476 -12.0647
LeftUpLeg  -97.622 14.593 20.8693
LeftLeg  158.724 0.372101 -0.169355
LeftFoot  -45.2519 -1.64098 -3.77436
LeftToes  -16.0604 2.03064e-006 1.83538e-008
154
root  -22.6103 7.29411 -16.2327 179.126 -2.14293 -168.342
RightUpLeg  -91.7968 -8.46465 13.3672
RightLeg  154.131 11.1229 -5.96961
RightFoot  -48.9046 4.24223 9.92364
RightToes  -5.4284 0.0158961 -0.0523579
Spine  21.0567 1.89809 6.3937
Spine1  35.8268 2.73833 10.8386
HEad  -46.1205 20.6801 -0.735239
LeftShoulder1  -1.94126e-019 -3.10601e-018 -2.51263e-017
LeftArm  28.5475 -62.0556 -114.683
LeftForeArm  32.7753 -58.1777 -14.765
LeftHand  -0.73178 1.4281 21.3466
RightShoulder  -4.96962e-017 0 -2.36833e-017
RightArm  -15.8453 69.88 93.0888
RightForeArm  41.8943 60.3169 15.2194
RightHand  -0.283736 -2.78348 -12.2497
LeftUpLeg  -97.7144 14.3681 20.7942
LeftLeg  158.612 0.262537 -0.118964
LeftFoot  -45.2404 -1.66488 -3.83278
LeftToes  -15.7469 2.03064e-006 1.83538e-008
155
root  -22.6283 7.34624 -16.2087 179.24 -2.32468 -168.243
RightUpLeg  -91.8415 -8.57935 13.3166
RightLeg  153.917 11.0974 -6.00908
RightFoot  -48.7306 4.21457 9.90041
RightToes  -5.54601 0.0157558 -0.0543533
Spine  21.0451 1.83374 6.43119
Spine1  35.7969 2.54773 10.9535
HEad  -46.6988 20.2343 -0.976145
LeftShoulder1  -1.94126e-019 -3.10601e-018 -2.51263e-017
LeftArm  28.34 -62.0434 -114.625
LeftForeArm  32.6142 -58.2635 -14.8367
LeftHand  -0.747461 1.35973 21.4371
RightShoulder  -4.96962e-017 0 -2.36833e-017
RightArm  -15.1548 69.879 93.5841
RightForeArm  42.2357 60.4633 15.2883
RightHand  -0.288891 -2.77125 -12.4259
LeftUpLeg  -97.9438 14.1055 20.6487
LeftLeg  158.441 0.127425 -0.0561951
LeftFoot  -45.1213 -1.67834 -3.87688
LeftToes  -15.7121 2.03064e-006 1.83538e-008
156
root  -22.6494 7.38178 -16.1897 179.366 -2.49171 -168.177
RightUpLeg  -91.9385 -8.69501 13.2344
RightLeg  153.784 11.093 -6.04013
RightFoot  -48.4932 4.18782 9.89276
RightToes  -5.9651 0.0155656 -0.0564115
Spine  20.9879 1.77605 6.44021
Spine1  35.6979 2.38051 11.0235
HEad  -47.3246 19.2408 -1.09635
LeftShoulder1  -1.94126e-019 -3.10601e-018 -2.51263e-017
LeftArm  27.8665 -61.9909 -114.387
LeftForeArm  32.7818 -58.4422 -14.9374
LeftHand  -0.769385 1.25801 21.5271
RightShoulder  -4.96962e-017 0 -2.36833e-017
RightArm  -14.5071 69.7795 93.9433
RightForeArm  42.4452 60.6567 15.4053
RightHand  -0.273144 -2.96481 -12.6344
LeftUpLeg  -98.1987 13.9172 20.4741
LeftLeg  158.334 0.0488409 -0.019242
LeftFoot  -44.988 -1.66996 -3.86993
LeftToes  -15.8285 2.03064e-006 1.83538e-008
157
root  -22.6811 7.40402 -16.1754 179.551 -2.69774 -168.111
RightUpLeg  -92.121 -8.90545 13.0981
RightLeg  153.712 11.0156 -6.01488
RightFoot  -48.2986 4.14147 9.83179
RightToes  -6.28147 0.0153273 -0.0582722
Spine  20.859 1.70916 6.43697
Spine1  35.4859 2.20639 11.0745
HEad  -48.3418 17.84 -1.18642
LeftShoulder1  -1.94126e-019 -3.10601e-018 -2.51263e-017
LeftArm  27.3106 -61.9594 -114.073
LeftForeArm  32.9672 -58.6385 -15.0493
LeftHand  -0.802671 1.05211 21.4049
RightShoulder  -4.96962e-017 0 -2.36833e-017
RightArm  -14.0359 69.6562 94.054
RightForeArm  42.6194 60.8918 15.5616
RightHand  -0.265354 -3.06404 -12.9226
LeftUpLeg  -98.5691 13.6627 20.1624
LeftLeg  158.277 -0.146695 0.0735763
LeftFoot  -44.9473 -1.69504 -3.93454
LeftToes  -15.5892 2.03064e-006 1.83538e-008
158
root  -22.7194 7.39844 -16.1774 179.623 -2.80473 -168.06
RightUpLeg  -92.1948 -9.05823 12.9343
RightLeg  153.733 10.9495 -5.97272
RightFoot  -48.2408 4.11818 9.79222
RightToes  -6.41458 0.0150428 -0.0596752
Spine  20.7743 1.67483 6.41926
Spine1  35.3437 2.09274 11.1119
HEad  -49.9463 16.0011 -1.13312
LeftShoulder1  -1.94126e-019 -3.10601e-018 -2.51263e-017
LeftArm  26.8059 -61.9845 -113.834
LeftForeArm  33.1534 -58.8301 -15.1594
LeftHand  -0.841806 0.758942 21.0474
RightShoulder  -4.96962e-017 0 -2.36833e-017
RightArm  -13.7354 69.5373 94.0462
RightForeArm  42.8982 61.1793 15.7493
RightHand  -0.264195 -3.13703 -13.1183
LeftUpLeg  -98.7576 13.4811 19.9144
LeftLeg  158.34 -0.314472 0.15282
LeftFoot  -45.056 -1.73257 -4.01397
LeftToes  -15.1816 2.03064e-006 1.83538e-008
159
root  -22.7593 7.36734 -16.1916 179.634 -2.89645 -168.018
RightUpLeg  -92.2156 -9.22057 12.7387
RightLeg  153.851 10.8757 -5.90217
RightFoot  -48.2584 4.10419 9.75711
RightToes  -6.41983 0.0147139 -0.0608134
Spine  20.6998 1.62247 6.40567
Spine1  35.2201 1.95022 11.1338
HEad  -52.2746 13.7271 -1.05768
LeftShoulder1  -1.94126e-019 -3.10601e-018 -2.51263e-017
LeftArm  26.0409 -61.9884 -113.486
LeftForeArm  33.7967 -59.1623 -15.3253
LeftHand  -0.907743 0.302573 20.6869
RightShoulder  -4.96962e-017 0 -2.36833e-017
RightArm  -13.2773 69.4418 94.1827
RightForeArm  43.1868 61.4273 15.9092
RightHand  -0.263494 -3.16663 -13.254
LeftUpLeg  -98.8825 13.2931 19.7107
LeftLeg  158.494 -0.462949 0.221595
LeftFoot  -45.2493 -1.77358 -4.09246
LeftToes  -14.6258 2.03064e-006 1.83538e-008
160
root  -22.8024 7.31818 -16.2152 179.578 -2.93712 -167.947
RightUpLeg  -92.1581 -9.3289 12.4952
RightLeg  154.037 10.7863 -5.80694
RightFoot  -48.2603 4.07823 9.69862
RightToes  -6.78082 0.0143426 -0.0620165
Spine  20.6565 1.56824 6.39897
Spine1  35.1364 1.79561 11.1673
HEad  -55.0032 11.4671 -1.0456
LeftShoulder1  -1.94126e-019 -3.10601e-018 -2.51263e-017
LeftArm  25.2172 -62.0287 -113.12
LeftForeArm  34.5463 -59.448 -15.4499
LeftHand  -0.995661 -0.236341 20.5415
RightShoulder  -4.96962e-017 0 -2.36833e-017
RightArm  -12.6287 69.3866 94.5415
RightForeArm  43.5132 61.5771 15.9909
RightHand  -0.263481 -3.22566 -13.6124
LeftUpLeg  -98.938 13.1014 19.5584
LeftLeg  158.724 -0.643131 0.303134
LeftFoot  -45.5005 -1.83807 -4.21996
LeftToes  -14.0525 2.03064e-006 1.83538e-008
161
root  -22.8414 7.26594 -16.2441 179.497 -2.94482 -167.876
RightUpLeg  -92.0854 -9.40108 12.3261
RightLeg  154.216 10.7504 -5.74358
RightFoot  -48.3005 4.07751 9.68839
RightToes  -6.86833 0.0139308 -0.06323
Spine  20.6154 1.50931 6.37776
Spine1  35.0519 1.63509 11.1716
HEad  -58.1075 9.26703 -0.863448
LeftShoulder1  -1.94126e-019 -3.10601e-018 -2.51263e-017
LeftArm  24.2641 -62.077 -112.605
LeftForeArm  35.2493 -59.7553 -15.5973
LeftHand  -1.09699 -0.823383 20.5144
RightShoulder  -4.96962e-017 0 -2.36833e-017
RightArm  -11.759 69.305 95.16
RightForeArm  43.6079 61.6856 16.0659
RightHand  -0.285386 -3.09265 -13.9602
LeftUpLeg  -98.9279 12.9082 19.4263
LeftLeg  158.974 -0.867302 0.402825
LeftFoot  -45.781 -1.91954 -4.38281
LeftToes  -13.196 2.03064e-006 1.83538e-008
162
root  -22.8805 7.21833 -16.2664 179.39 -2.96933 -167.783
RightUpLeg  -92.002 -9.48851 12.1302
RightLeg  154.374 10.69 -5.67229
RightFoot  -48.2907 4.06049 9.65244
RightToes  -7.15827 0.0134804 -0.0643993
Spine  20.603 1.44082 6.38626
Spine1  35.0313 1.44358 11.2277
HEad  -61.4507 7.21053 -0.539194
LeftShoulder1  -1.94126e-019 -3.10601e-018 -2.51263e-017
LeftArm  23.2536 -62.0776 -112.306
LeftForeArm  35.7584 -60.2464 -15.9038
LeftHand  -1.14476 -1.16957 20.2942
RightShoulder  -4.96962e-017 0 -2.36833e-017
RightArm  -10.7711 69.328 95.8658
RightForeArm  43.7016 61.8488 16.1848
RightHand  -0.288549 -3.07207 -13.9986
LeftUpLeg  -98.9415 12.6273 19.2881
LeftLeg  159.202 -1.1635 0.533442
LeftFoot  -46.0305 -2.01851 -4.58803
LeftToes  -12.6756 2.03064e-006 1.83538e-008
163
root  -22.909 7.19624 -16.2814 179.346 -2.92575 -167.707
RightUpLeg  -91.955 -9.4681 12.0171
RightLeg  154.443 10.6895 -5.6555
RightFoot  -48.2434 4.06302 9.66818
RightToes  -7.14892 0.0129931 -0.0654699
Spine  20.5449 1.4149 6.35527
Spine1  34.9377 1.34907 11.2315
HEad  -64.8486 5.49184 0.00380063
LeftShoulder1  -1.94126e-019 -3.10601e-018 -2.51263e-017
LeftArm  22.3107 -62.0164 -112.049
LeftForeArm  35.7321 -60.7124 -16.2595
LeftHand  -1.16224 -1.337 20.1011
RightShoulder  -4.96962e-017 0 -2.36833e-017
RightArm  -9.89067 69.1549 96.3091
RightForeArm  44.0532 62.0966 16.3457
RightHand  -0.309438 -2.93831 -14.2484
LeftUpLeg  -98.9069 12.4379 19.2238
LeftLeg  159.335 -1.45318 0.661173
LeftFoot  -46.1797 -2.10245 -4.76755
LeftToes  -12.1326 2.03064e-006 1.83538e-008
164
root  -22.9297 7.19288 -16.2822 179.333 -2.89142 -167.625
RightUpLeg  -91.9597 -9.44401 11.95
RightLeg  154.437 10.6495 -5.63522
RightFoot  -48.1437 4.04339 9.64548
RightToes  -7.1751 0.012471 -0.0663872
Spine  20.496 1.39821 6.32779
Spine1  34.8633 1.26989 11.2483
HEad  -68.1828 4.02489 0.776565
LeftShoulder1  -1.94126e-019 -3.10601e-018 -2.51263e-017
LeftArm  21.2996 -61.8282 -111.862
LeftForeArm  36.0082 -61.3374 -16.7212
LeftHand  -1.18108 -1.52796 19.8746
RightShoulder  -4.96962e-017 0 -2.36833e-017
RightArm  -9.07976 69.0294 96.6369
RightForeArm  44.198 62.317 16.5099
RightHand  -0.316591 -2.92001 -14.4853
LeftUpLeg  -98.9142 12.2626 19.1652
LeftLeg  159.388 -1.69787 0.769934
LeftFoot  -46.2511 -2.16184 -4.89788
LeftToes  -11.7787 2.03064e-006 1.83538e-008
